G:films 1Missiya.nevypodlnima.Protokol.fantom.2011.D.CAMRip.avi
   General
      Complete name : G:films 1Missiya.nevypodlnima.Protokol.fantom.2011.D.CAMRip.avi
      Format : AVI
      Format/Info : Audio Video Interleave
      File size : 1.37 GiB
      Duration : 1h 55mn
      Overall bit rate : 1 687 Kbps
      Writing application : VirtualDubMod 1.5.10.2 (build 2540/release)
      Writing library : VirtualDubMod build 2540/release
   Video #0
      ID : 0
      Format : MPEG-4 Visual
      Format profile : Advanced Simple@L5
      Format settings, BVOP : 1
      Format settings, QPel : No
      Format settings, GMC : No warppoints
      Format settings, Matrix : Custom
      Codec ID : DIVX
      Codec ID/Info : Project Mayo
      Codec ID/Hint : DivX 4
      Duration : 1h 55mn
      Bit rate : 1 549 Kbps
      Width : 720 pixels
      Height : 304 pixels
      Display aspect ratio : 2.35:1
      Frame rate : 25.000 fps
      Color space : YUV
      Chroma subsampling : 4:2:0
      Bit depth : 8 bits
      Scan type : Progressive
      Compression mode : Lossy
      Bits/(Pixel*Frame) : 0.283
      Stream size : 1.25 GiB (92%)
      Writing library : XviD 1.2.1 (UTC 2008-12-04)
   Audio #1
      ID : 1
      Format : MPEG Audio
      Format version : Version 1
      Format profile : Layer 3
      Mode : Joint stereo
      Mode extension : MS Stereo
      Codec ID : 55
      Codec ID/Hint : MP3
      Duration : 1h 55mn
      Bit rate mode : Constant
      Bit rate : 128 Kbps
      Channel(s) : 2 channels
      Sampling rate : 48.0 KHz
      Compression mode : Lossy
      Stream size : 106 MiB (8%)
      Alignment : Aligned on interleaves
      Interleave, duration : 40 ms (1.00 video frame)
      Interleave, preload duration : 504 ms

 
http://ua.lostpic.net/images/935836aa499d4a5455df1302641dfd04.png
 
http://ua.lostpic.net/images/939b1b7f40a72f097ec92d06e59b19f5.png
 
http://ua.lostpic.net/images/c7b228b2d6c5ae739a4621e397acdee3.png
